Coordinates
version=1
nRows=11
nColumns=63
inDegrees=yes

Units are S.I. units (second, meters, Newtons, ...)
If the header above contains a line with 'inDegrees', this indicates whether rotational values are in degrees (yes) or radians (no).

endheader
time	pelvis_tilt	pelvis_list	pelvis_rotation	pelvis_tx	pelvis_ty	pelvis_tz	hip_flexion_r	hip_adduction_r	hip_rotation_r	knee_angle_r	knee_angle_r_beta	ankle_angle_r	subtalar_angle_r	mtp_angle_r	hip_flexion_l	hip_adduction_l	hip_rotation_l	knee_angle_l	knee_angle_l_beta	ankle_angle_l	subtalar_angle_l	mtp_angle_l	L5_S1_Flex_Ext	L5_S1_Lat_Bending	L5_S1_axial_rotation	L4_L5_Flex_Ext	L4_L5_Lat_Bending	L4_L5_axial_rotation	L3_L4_Flex_Ext	L3_L4_Lat_Bending	L3_L4_axial_rotation	L2_L3_Flex_Ext	L2_L3_Lat_Bending	L2_L3_axial_rotation	L1_L2_Flex_Ext	L1_L2_Lat_Bending	L1_L2_axial_rotation	L1_T12_Flex_Ext	L1_T12_Lat_Bending	L1_T12_axial_rotation	Abs_r3	Abs_r2	Abs_r1	Abs_t1	Abs_t2	neck_flexion	neck_bending	neck_rotation	arm_flex_r	arm_add_r	arm_rot_r	elbow_flex_r	pro_sup_r	wrist_flex_r	wrist_dev_r	arm_flex_l	arm_add_l	arm_rot_l	elbow_flex_l	pro_sup_l	wrist_flex_l	wrist_dev_l
2.166667	-1.116118	-4.897796	94.525733	0.030704	0.821172	0.733811	9.107247	-4.083699	-0.688174	14.232998	0.248413	35.758024	2.501608	0.000000	7.977995	2.482029	-3.045530	9.657187	0.168550	34.149641	6.683870	0.000000	-0.145301	-0.679131	2.096694	-0.269838	-0.903245	2.227737	-0.238715	-1.651240	2.227737	-0.166064	-1.651240	1.834607	-0.134926	-1.384885	1.703564	-0.083025	-1.051975	1.572521	-1.037870	-7.682471	11.661183	0.000000	0.000000	25.687428	-12.001136	-5.675584	1.516444	-10.382853	33.660053	26.673157	66.675009	-5.371300	-9.901064	12.069192	-14.969406	94.893628	14.809243	31.279043	-8.501717	-11.838475
2.185185	-1.138028	-4.882066	94.498816	0.030801	0.821267	0.733641	9.098950	-4.061206	-0.356377	14.170014	0.247313	35.862354	2.241032	0.000000	7.966172	2.488426	-3.042839	9.644620	0.168330	34.097585	6.669413	0.000000	-0.142540	-0.685355	2.088306	-0.264710	-0.911522	2.218826	-0.234178	-1.666372	2.218826	-0.162909	-1.666372	1.827268	-0.132362	-1.397575	1.696749	-0.081447	-1.061615	1.566230	-1.018146	-7.752870	11.614534	0.000000	0.000000	25.852646	-11.892705	-5.627599	1.439215	-10.370165	33.689318	26.645750	66.601333	-5.444419	-9.787950	12.070837	-14.791465	96.431442	14.335412	29.927910	-7.963591	-11.486906
2.203704	-1.139429	-4.873839	94.489285	0.030831	0.821362	0.733500	9.086894	-4.022931	-0.038661	14.056038	0.245324	35.978157	2.027584	0.000000	7.973416	2.478035	-3.034217	9.653124	0.168479	34.065824	6.669467	0.000000	-0.140041	-0.688275	2.068063	-0.260070	-0.915406	2.197317	-0.230074	-1.673472	2.197317	-0.160053	-1.673472	1.809555	-0.130042	-1.403531	1.680301	-0.080019	-1.066138	1.551047	-1.000300	-7.785907	11.501945	0.000000	0.000000	25.978166	-11.803369	-5.552483	1.391289	-10.370104	33.779107	26.609463	66.449939	-5.531129	-9.656634	12.089196	-14.597709	98.261026	13.855398	28.278497	-7.430967	-11.190462
2.222222	-1.118827	-4.879069	94.471614	0.030825	0.821455	0.733375	9.086917	-3.965532	0.273677	13.913697	0.242840	36.099193	1.872080	0.000000	7.994130	2.449978	-3.013713	9.665087	0.168688	34.040824	6.643110	0.000000	-0.136709	-0.688023	2.038607	-0.253882	-0.915070	2.166020	-0.224599	-1.672859	2.166020	-0.156244	-1.672859	1.783781	-0.126948	-1.403016	1.656368	-0.078115	-1.065748	1.528955	-0.976497	-7.783053	11.338121	0.000000	0.000000	26.044519	-11.686626	-5.471810	1.373571	-10.383788	33.910676	26.578543	66.280053	-5.615051	-9.499011	12.136939	-14.382508	100.583139	13.354314	26.092897	-6.824700	-10.941319
2.240741	-1.068181	-4.900344	94.442645	0.030796	0.821537	0.733254	9.099818	-3.877585	0.606899	13.746974	0.239930	36.199973	1.730332	0.000000	8.036195	2.384252	-3.108882	9.696782	0.169241	34.057668	6.749296	0.000000	-0.132202	-0.683417	1.999748	-0.245512	-0.908944	2.124732	-0.217195	-1.661659	2.124732	-0.151094	-1.661659	1.749779	-0.122763	-1.393623	1.624795	-0.075540	-1.058612	1.499811	-0.944306	-7.730946	11.121998	0.000000	0.000000	26.047958	-11.556838	-5.401968	1.374167	-10.409791	34.014112	26.573769	66.138650	-5.682878	-9.305475	12.192586	-14.184077	102.920462	12.913550	23.752862	-6.224492	-10.703651
2.259259	-0.981952	-4.942385	94.411130	0.030699	0.821593	0.733132	9.127984	-3.775638	0.765060	13.566457	0.236779	36.299434	1.830504	0.000000	8.105706	2.282612	-3.279874	9.752362	0.170211	34.112844	6.944280	0.000000	-0.125794	-0.673147	1.953108	-0.233612	-0.895285	2.075178	-0.206667	-1.636689	2.075178	-0.143770	-1.636689	1.708970	-0.116813	-1.372681	1.586901	-0.071879	-1.042705	1.464831	-0.898536	-7.614772	10.862603	0.000000	0.000000	26.000783	-11.423083	-5.359522	1.385115	-10.462760	34.097271	26.604729	65.990046	-5.738938	-9.069414	12.287854	-13.945517	105.838231	12.445995	20.824643	-5.588154	-10.538187
2.277778	-0.884311	-4.990299	94.390932	0.030518	0.821613	0.732970	9.155416	-3.676849	0.834482	13.400322	0.233880	36.387341	2.016672	0.000000	8.163773	2.190405	-3.298660	9.789975	0.170867	34.149130	6.949193	0.000000	-0.119921	-0.659961	1.897438	-0.222705	-0.877748	2.016028	-0.197018	-1.604628	2.016028	-0.137057	-1.604628	1.660258	-0.111358	-1.345792	1.541668	-0.068523	-1.022279	1.423079	-0.856582	-7.465607	10.552981	0.000000	0.000000	25.928079	-11.271367	-5.350287	1.418399	-10.529075	34.236609	26.637683	65.655277	-5.756529	-8.852034	12.348655	-13.790902	108.038842	12.178315	18.490009	-5.168765	-10.372855
2.296296	-0.774253	-5.051061	94.380804	0.030249	0.821592	0.732769	9.184706	-3.582459	0.800290	13.250672	0.231268	36.436345	2.285958	0.000000	8.228300	2.090237	-3.376626	9.835723	0.171666	34.210940	7.028616	0.000000	-0.112872	-0.643135	1.834585	-0.209615	-0.855370	1.949246	-0.185437	-1.563718	1.949246	-0.129001	-1.563718	1.605261	-0.104813	-1.311481	1.490600	-0.064495	-0.996216	1.375938	-0.806233	-7.275271	10.203409	0.000000	0.000000	25.854301	-11.087856	-5.320452	1.466865	-10.603815	34.358275	26.661496	65.312104	-5.723391	-8.620232	12.411258	-13.608263	110.554673	11.885312	15.891933	-4.722914	-10.308577
2.314815	-0.663078	-5.117208	94.377408	0.029903	0.821527	0.732506	9.203359	-3.496988	0.717610	13.120465	0.228995	36.426138	2.547825	0.000000	8.286212	1.996767	-3.474819	9.881018	0.172456	34.286500	7.123701	0.000000	-0.105281	-0.623747	1.766254	-0.195518	-0.829583	1.876645	-0.172967	-1.516578	1.876645	-0.120326	-1.516578	1.545473	-0.097764	-1.271944	1.435082	-0.060158	-0.966184	1.324691	-0.752014	-7.055946	9.823377	0.000000	0.000000	25.802602	-10.853190	-5.242142	1.524963	-10.679479	34.440385	26.674356	64.985650	-5.640491	-8.363872	12.451853	-13.449880	112.872015	11.667634	13.480921	-4.372266	-10.329008
2.333333	-0.558867	-5.185734	94.364042	0.029509	0.821431	0.732172	9.213374	-3.422915	0.622976	13.018988	0.227224	36.346919	2.759593	0.000000	8.328133	1.919341	-3.561758	9.911815	0.172994	34.361112	7.176680	0.000000	-0.097197	-0.602922	1.695912	-0.180505	-0.801886	1.801906	-0.159685	-1.465944	1.801906	-0.111087	-1.465944	1.483923	-0.090257	-1.229478	1.377928	-0.055538	-0.933926	1.271934	-0.694269	-6.820373	9.432153	0.000000	0.000000	25.783091	-10.548763	-5.117867	1.598149	-10.752071	34.505835	26.662296	64.688804	-5.528476	-8.100804	12.455327	-13.328944	114.791556	11.545883	11.455414	-4.130825	-10.394390
2.351852	-0.468319	-5.261291	94.331159	0.029107	0.821306	0.731769	9.229072	-3.366305	0.510193	12.957108	0.226144	36.220023	2.948472	0.000000	8.356794	1.853871	-3.741424	9.920269	0.173141	34.443979	7.324746	0.000000	-0.088109	-0.582520	1.628169	-0.163627	-0.774751	1.729930	-0.144754	-1.416339	1.729930	-0.100699	-1.416339	1.424648	-0.081818	-1.187874	1.322888	-0.050345	-0.902323	1.221127	-0.629351	-6.589580	9.055390	0.000000	0.000000	25.800780	-10.140655	-4.988170	1.677669	-10.828080	34.579233	26.646063	64.407846	-5.404143	-7.856888	12.418991	-13.253967	116.168013	11.528830	9.978446	-4.020813	-10.454620
